<svg xmlns="http://www.w3.org/2000/svg" xmlns:xlink="http://www.w3.org/1999/xlink" width="1080" zoomAndPan="magnify" viewBox="0 0 810 809.999993" height="1080" preserveAspectRatio="xMidYMid meet" version="1.0"><defs><g/></defs><g fill="#5e17eb" fill-opacity="1"><g transform="translate(-14.217404, 498.374995)"><g><path d="M 16.921875 -19.0625 C 16.921875 -25.238281 19 -30.25 23.15625 -34.09375 C 27.320312 -37.945312 32.539062 -39.875 38.8125 -39.875 C 45.164062 -39.875 50.421875 -37.945312 54.578125 -34.09375 C 58.742188 -30.25 60.828125 -25.238281 60.828125 -19.0625 C 60.828125 -12.976562 58.765625 -8.03125 54.640625 -4.21875 C 50.523438 -0.414062 45.25 1.484375 38.8125 1.484375 C 32.445312 1.484375 27.207031 -0.414062 23.09375 -4.21875 C 18.976562 -8.03125 16.921875 -12.976562 16.921875 -19.0625 Z M 16.921875 -19.0625 "/></g></g></g><g fill="#000000" fill-opacity="1"><g transform="translate(65.681029, 498.374995)"><g><path d="M 70.09375 -195.515625 L 120.3125 -53.71875 L 170.265625 -195.515625 L 223.171875 -195.515625 L 223.171875 0 L 182.75 0 L 182.75 -53.4375 L 186.78125 -145.6875 L 134.015625 0 L 106.34375 0 L 53.71875 -145.5625 L 57.734375 -53.4375 L 57.734375 0 L 17.453125 0 L 17.453125 -195.515625 Z M 70.09375 -195.515625 "/></g></g><g transform="translate(306.570191, 498.374995)"><g><path d="M 55.859375 0 L 16.921875 0 L 16.921875 -145.28125 L 55.859375 -145.28125 Z M 14.640625 -182.890625 C 14.640625 -188.703125 16.582031 -193.488281 20.46875 -197.25 C 24.363281 -201.007812 29.671875 -202.890625 36.390625 -202.890625 C 43.015625 -202.890625 48.296875 -201.007812 52.234375 -197.25 C 56.171875 -193.488281 58.140625 -188.703125 58.140625 -182.890625 C 58.140625 -176.984375 56.144531 -172.148438 52.15625 -168.390625 C 48.175781 -164.628906 42.921875 -162.75 36.390625 -162.75 C 29.859375 -162.75 24.597656 -164.628906 20.609375 -168.390625 C 16.628906 -172.148438 14.640625 -176.984375 14.640625 -182.890625 Z M 14.640625 -182.890625 "/></g></g><g transform="translate(379.48146, 498.374995)"><g><path d="M 75.328125 -28.59375 C 82.492188 -28.59375 88.3125 -30.5625 92.78125 -34.5 C 97.257812 -38.445312 99.585938 -43.6875 99.765625 -50.21875 L 136.15625 -50.21875 C 136.0625 -40.375 133.375 -31.351562 128.09375 -23.15625 C 122.8125 -14.96875 115.582031 -8.613281 106.40625 -4.09375 C 97.238281 0.425781 87.101562 2.6875 76 2.6875 C 55.226562 2.6875 38.84375 -3.910156 26.84375 -17.109375 C 14.851562 -30.316406 8.859375 -48.5625 8.859375 -71.84375 L 8.859375 -74.390625 C 8.859375 -96.765625 14.8125 -114.617188 26.71875 -127.953125 C 38.625 -141.296875 54.960938 -147.96875 75.734375 -147.96875 C 93.898438 -147.96875 108.46875 -142.796875 119.4375 -132.453125 C 130.40625 -122.117188 135.976562 -108.359375 136.15625 -91.171875 L 99.765625 -91.171875 C 99.585938 -98.691406 97.257812 -104.800781 92.78125 -109.5 C 88.3125 -114.195312 82.40625 -116.546875 75.0625 -116.546875 C 66.019531 -116.546875 59.191406 -113.253906 54.578125 -106.671875 C 49.972656 -100.097656 47.671875 -89.425781 47.671875 -74.65625 L 47.671875 -70.625 C 47.671875 -55.675781 49.953125 -44.929688 54.515625 -38.390625 C 59.078125 -31.859375 66.015625 -28.59375 75.328125 -28.59375 Z M 75.328125 -28.59375 "/></g></g><g transform="translate(522.88705, 498.374995)"><g><path d="M 99.09375 0 C 97.300781 -3.488281 96.003906 -7.832031 95.203125 -13.03125 C 85.804688 -2.550781 73.585938 2.6875 58.546875 2.6875 C 44.304688 2.6875 32.507812 -1.425781 23.15625 -9.65625 C 13.800781 -17.894531 9.125 -28.285156 9.125 -40.828125 C 9.125 -56.222656 14.832031 -68.035156 26.25 -76.265625 C 37.664062 -84.503906 54.160156 -88.664062 75.734375 -88.75 L 93.59375 -88.75 L 93.59375 -97.078125 C 93.59375 -103.796875 91.867188 -109.164062 88.421875 -113.1875 C 84.972656 -117.21875 79.535156 -119.234375 72.109375 -119.234375 C 65.578125 -119.234375 60.453125 -117.664062 56.734375 -114.53125 C 53.015625 -111.40625 51.15625 -107.109375 51.15625 -101.640625 L 12.359375 -101.640625 C 12.359375 -110.054688 14.953125 -117.84375 20.140625 -125 C 25.335938 -132.164062 32.675781 -137.785156 42.15625 -141.859375 C 51.644531 -145.929688 62.300781 -147.96875 74.125 -147.96875 C 92.03125 -147.96875 106.238281 -143.46875 116.75 -134.46875 C 127.269531 -125.476562 132.53125 -112.835938 132.53125 -96.546875 L 132.53125 -33.5625 C 132.625 -19.78125 134.550781 -9.351562 138.3125 -2.28125 L 138.3125 0 Z M 67 -26.984375 C 72.726562 -26.984375 78.007812 -28.257812 82.84375 -30.8125 C 87.675781 -33.363281 91.257812 -36.789062 93.59375 -41.09375 L 93.59375 -66.0625 L 79.09375 -66.0625 C 59.664062 -66.0625 49.328125 -59.347656 48.078125 -45.921875 L 47.9375 -43.640625 C 47.9375 -38.804688 49.632812 -34.820312 53.03125 -31.6875 C 56.4375 -28.550781 61.09375 -26.984375 67 -26.984375 Z M 67 -26.984375 "/></g></g><g transform="translate(670.320885, 498.374995)"><g><path d="M 52.765625 -129.4375 C 63.066406 -141.789062 76.003906 -147.96875 91.578125 -147.96875 C 123.085938 -147.96875 139.066406 -129.660156 139.515625 -93.046875 L 139.515625 0 L 100.703125 0 L 100.703125 -91.984375 C 100.703125 -100.304688 98.910156 -106.457031 95.328125 -110.4375 C 91.753906 -114.425781 85.804688 -116.421875 77.484375 -116.421875 C 66.109375 -116.421875 57.867188 -112.035156 52.765625 -103.265625 L 52.765625 0 L 13.96875 0 L 13.96875 -206.25 L 52.765625 -206.25 Z M 52.765625 -129.4375 "/></g></g></g></svg>